<svg xmlns="http://www.w3.org/2000/svg">

    <symbol id="bars">
        <path d="M10.5 7.5v15M7.5 20.5H10M13.5 11.5H11M19.5 6.5v15M16.5 9.5H19M22.5 16.5H20"></path>
    </symbol>

    <symbol id="candles">
        <path d="M17 11v6h3v-6h-3zm-.5-1h4a.5.5 0 0 1 .5.5v7a.5.5 0 0 1-.5.5h-4a.5.5 0 0 1-.5-.5v-7a.5.5 0 0 1 .5-.5z"></path>
        <path d="M18 7h1v3.5h-1zm0 10.5h1V21h-1z"></path>
        <path d="M9 8v12h3V8H9zm-.5-1h4a.5.5 0 0 1 .5.5v13a.5.5 0 0 1-.5.5h-4a.5.5 0 0 1-.5-.5v-13a.5.5 0 0 1 .5-.5z"></path>
        <path d="M10 4h1v3.5h-1zm0 16.5h1V24h-1z"></path>
    </symbol>

    <symbol id="area">
        <path d="M12.5 17.207L18.707 11h2l3.647-3.646-.708-.708L20.293 10h-2L12.5 15.793l-3-3-4.854 4.853.708.708L9.5 14.207z"></path>
        <path d="M9 16h1v1H9zm1 1h1v1h-1zm-1 1h1v1H9zm2 0h1v1h-1zm-1 1h1v1h-1zm-1 1h1v1H9zm2 0h1v1h-1zm-3-3h1v1H8zm-1 1h1v1H7zm-1 1h1v1H6zm2 0h1v1H8zm-1 1h1v1H7zm-2 0h1v1H5zm17-9h1v1h-1zm1-1h1v1h-1zm0 2h1v1h-1zm-1 1h1v1h-1zm-1 1h1v1h-1zm2 0h1v1h-1zm-1 1h1v1h-1zm-1 1h1v1h-1zm2 0h1v1h-1zm-1 1h1v1h-1zm-1 1h1v1h-1zm2 0h1v1h-1zm-1 1h1v1h-1zm-1 1h1v1h-1zm2 0h1v1h-1zm-5-7h1v1h-1zm2 0h1v1h-1zm1-1h1v1h-1zm-2 2h1v1h-1zm-1 1h1v1h-1zm2 0h1v1h-1zm-1 1h1v1h-1zm-1 1h1v1h-1zm2 0h1v1h-1zm-1 1h1v1h-1zm-1 1h1v1h-1zm2 0h1v1h-1zm-1 1h1v1h-1zm-2-6h1v1h-1zm-1 1h1v1h-1zm-1 1h1v1h-1zm2 0h1v1h-1zm-1 1h1v1h-1zm-1 1h1v1h-1zm2 0h1v1h-1zm-1 1h1v1h-1zm-1 1h1v1h-1zm2 0h1v1h-1zm-3-3h1v1h-1zm-1 1h1v1h-1zm-1 1h1v1h-1zm2 0h1v1h-1zm-1 1h1v1h-1z"></path>
    </symbol>

    <symbol id="line">
        <path d="M11.982 16.689L17.192 12h3.033l4.149-4.668-.748-.664L19.776 11h-2.968l-4.79 4.311L9 12.293l-4.354 4.353.708.708L9 13.707z"></path>
    </symbol>

    <symbol id="new-york-times">
        <path d="M13.9,2.5C13.9.5,12,0,10.5,0V.3c.9,0,1.6.3,1.6,1a1.05872,1.05872,0,0,1-1.2,1,12.95853,12.95853,0,0,1-3.3-.8A13.27527,13.27527,0,0,0,4.1.7,3.27043,3.27043,0,0,0,.7,3.9,2.31777,2.31777,0,0,0,2.2,6.1l.1-.2a1.05381,1.05381,0,0,1-.6-1A1.26593,1.26593,0,0,1,3.1,3.8a14.776,14.776,0,0,1,3.7.9,28.25773,28.25773,0,0,0,3.7.8V8.6L9,9.9V10l1.5,1.3v4.3a4.6179,4.6179,0,0,1-2.5.6,4.92913,4.92913,0,0,1-3.9-1.6l4.1-2v-7l-5,2.2A6.68515,6.68515,0,0,1,5.8,4.9l-.1-.2A7.47133,7.47133,0,0,0,0,11.6a7.01948,7.01948,0,0,0,7,7,6.50532,6.50532,0,0,0,6.6-6.5h-.2a6.69748,6.69748,0,0,1-2.6,3.1V11.1l1.6-1.3V9.7L10.9,8.4v-3A2.85791,2.85791,0,0,0,13.9,2.5Zm-8.7,11L4,14.1a5.93247,5.93247,0,0,1-1.1-3.8,7.10647,7.10647,0,0,1,.3-2.1l2.1-.9Z" />
    </symbol>

    <symbol id="coindesk" viewBox="0 0 150 150">
        <!-- <style>
            .st1 {
                fill: #f3bb2d
            }
        </style> -->
        <!-- <path d="M0 .2h150v150H0V.2z" fill="none" id="Layer_3" /> -->
        <!-- <path d="M0 .2h150v150H0V.2z" fill="none" />
        <g id="coindesk">
            <path class="st1" d="M68.6 74.6c0 3.3 2.6 5.9 5.9 5.9 3.3 0 5.9-2.6 5.9-5.9 0-3.3-2.6-5.9-5.9-5.9-3.3-.1-5.9 2.5-5.9 5.9m50.2-6c-3.3 0-5.9 2.6-5.9 5.9 0 3.3 2.6 5.9 5.9 5.9 3.3 0 5.9-2.6 5.9-5.9 0-3.3-2.6-5.9-5.9-5.9m0 45c-3.3 0-5.9 2.6-5.9 5.9 0 3.3 2.6 5.9 5.9 5.9 3.3 0 5.9-2.6 5.9-5.9 0-3.3-2.6-5.9-5.9-5.9" />
            <path class="st1" d="M131.4 19.2c-5.9-7.4-16.7-7.8-23-1.9l-.7.7-1.5 1.1c-5.9 4.8-14.9 4.5-20.4-1.1v-.4c-1.9-1.9-4.5-3.3-7.1-4.1-.4 0-1.1-.4-1.5-.4h-5.9c-.4 0-.7 0-1.1.4h-.7c-.4 0-.7.4-1.1.4 0 0-.4 0-.4.4-.4 0-.7.4-1.1.4 0 0-.4 0-.4.4-.4.4-.7.4-1.1.7 0 0-.4 0-.4.4-.4.4-.7.4-1.1.7l-.4.4-.7.7-1.5 1.1c-5.9 4.8-14.9 4.5-20.1-1.1 0 0-.4 0-.4-.4L40 17c-2.2-1.9-4.8-3.3-7.8-3.7h-6.7c0 .4-.4.4-.7.7h-.4c-1.9.7-3.7 1.5-5.2 3l-.4.4-1.1 1.1c-1.5 1.5-2.2 3.3-3 4.8 0 .4-.4.7-.4 1.1s-.3.7-.3 1.5c-.4 2.6-.4 5.2.4 7.8 0 .4.4.7.4 1.1v.4c0 .4.4.7.4 1.1.4.4.4.7.7 1.5.7.4 1.5 1.1 1.9 1.5l.7.7.7.7c5.6 5.6 5.6 15.2-.4 21.2-.7.7-1.9 1.9-2.2 2.6-.4.4-.4.7-.7 1.5v.4c-.4.4-.4.7-.7 1.1v.4c0 .4-.4.7-.4 1.1v.4c0 .4 0 .7-.4 1.1v5.6c0 .4 0 .7.4 1.1v.4c.7 2.6 2.2 5.2 4.5 7.4 5.9 5.9 5.9 15.6 0 21.6l-.4.4-.7.7v.4c-.4.4-.7.7-.7 1.1 0 0 0 .4-.4.4-.4.4-.4.7-.7 1.1l-.4.4c0 .4-.4.4-.4.7s-.4.4-.4.7 0 .4-.4.7c-.7 1.5-1.1 3.3-1.1 4.8v3c.4 1.1.4 2.2 1.1 3 0 .4.4.7.4.7s0 .4.4.4c0 .4.4.7.4 1.1 0 0 0 .4.4.4.4.7.7 1.1 1.1 1.5 0 0 0 .4.4.4 0 0 0 .4.4.4 0 .4.4.4.4.4l.4.4c.4.4.7.4.7.7l.4.4s.4 0 .4.4c.4.4.7.7 1.1.7 0 0 .4 0 .4.4.4.4.7.4 1.1.7h.4c.4.4.7.4 1.5.4.4 0 1.1.4 1.5.4h.4c.4 0 .7 0 1.1.4h3.3c1.1 0 1.9-.4 3-.4h.4c.4 0 .7-.4 1.1-.4h.4c.4 0 .7-.4 1.1-.4h.4c.7-.4 1.9-1.1 2.6-1.5l1.1-1.1.4-.4c5.9-6.3 15.6-6.3 21.6 0 6.7 7.1 17.8 6.7 24.2-1.1 4.5-5.6 4.5-13.8 0-19.7-5.9-7.4-16.7-7.8-23-1.9l-.7.7-1.5 1.1c-6.5 4.9-15.5 4.5-21-1.1l-.7-.7-1.1-1.5c-4.8-5.9-4.5-14.9 1.1-20.4 3.3-3 4.8-7.1 4.8-11.1v-1.1c0-3.7-1.5-7.4-4.5-10 0-.4-.4-.4-.4-.7L39.6 61c-4.8-5.9-4.5-14.9 1.1-20.4l.4-.4.4-.4c5.9-6.3 15.6-6.3 21.6 0l.4.4.4.4.7.7c.4 0 .4.4.7.4.4 0 .4.4.7.4.4 0 .4.4.7.4.4 0 .4.4.7.4.4 0 .4.4.7.4s.4.4.7.4c.4 0 .4 0 .7.4.4 0 .4 0 .7.4h6.3c.4 0 .7 0 1.1-.4h.7c.4 0 .7-.4 1.1-.4h.4c.4 0 .7-.4 1.5-.7 1.5-.7 3-1.9 4.1-3l.4-.4c5.9-6.3 15.6-6.3 21.6 0 6.3 7.4 17.8 7.1 23.8-.7 4.7-6 4.7-14.1.2-19.7" />
        </g> -->
        <!-- <style>.st1{fill:#f3bb2d}</style> -->
        <!-- <path d="M0 .2h150v150H0V.2z" fill="none" /> -->
        <!-- <g id="coindesk"> -->
        <path class="st1" d="M68.6 74.6c0 3.3 2.6 5.9 5.9 5.9 3.3 0 5.9-2.6 5.9-5.9 0-3.3-2.6-5.9-5.9-5.9-3.3-.1-5.9 2.5-5.9 5.9m50.2-6c-3.3 0-5.9 2.6-5.9 5.9 0 3.3 2.6 5.9 5.9 5.9 3.3 0 5.9-2.6 5.9-5.9 0-3.3-2.6-5.9-5.9-5.9m0 45c-3.3 0-5.9 2.6-5.9 5.9 0 3.3 2.6 5.9 5.9 5.9 3.3 0 5.9-2.6 5.9-5.9 0-3.3-2.6-5.9-5.9-5.9" />
        <path class="st1" d="M131.4 19.2c-5.9-7.4-16.7-7.8-23-1.9l-.7.7-1.5 1.1c-5.9 4.8-14.9 4.5-20.4-1.1v-.4c-1.9-1.9-4.5-3.3-7.1-4.1-.4 0-1.1-.4-1.5-.4h-5.9c-.4 0-.7 0-1.1.4h-.7c-.4 0-.7.4-1.1.4 0 0-.4 0-.4.4-.4 0-.7.4-1.1.4 0 0-.4 0-.4.4-.4.4-.7.4-1.1.7 0 0-.4 0-.4.4-.4.4-.7.4-1.1.7l-.4.4-.7.7-1.5 1.1c-5.9 4.8-14.9 4.5-20.1-1.1 0 0-.4 0-.4-.4L40 17c-2.2-1.9-4.8-3.3-7.8-3.7h-6.7c0 .4-.4.4-.7.7h-.4c-1.9.7-3.7 1.5-5.2 3l-.4.4-1.1 1.1c-1.5 1.5-2.2 3.3-3 4.8 0 .4-.4.7-.4 1.1s-.3.7-.3 1.5c-.4 2.6-.4 5.2.4 7.8 0 .4.4.7.4 1.1v.4c0 .4.4.7.4 1.1.4.4.4.7.7 1.5.7.4 1.5 1.1 1.9 1.5l.7.7.7.7c5.6 5.6 5.6 15.2-.4 21.2-.7.7-1.9 1.9-2.2 2.6-.4.4-.4.7-.7 1.5v.4c-.4.4-.4.7-.7 1.1v.4c0 .4-.4.7-.4 1.1v.4c0 .4 0 .7-.4 1.1v5.6c0 .4 0 .7.4 1.1v.4c.7 2.6 2.2 5.2 4.5 7.4 5.9 5.9 5.9 15.6 0 21.6l-.4.4-.7.7v.4c-.4.4-.7.7-.7 1.1 0 0 0 .4-.4.4-.4.4-.4.7-.7 1.1l-.4.4c0 .4-.4.4-.4.7s-.4.4-.4.7 0 .4-.4.7c-.7 1.5-1.1 3.3-1.1 4.8v3c.4 1.1.4 2.2 1.1 3 0 .4.4.7.4.7s0 .4.4.4c0 .4.4.7.4 1.1 0 0 0 .4.4.4.4.7.7 1.1 1.1 1.5 0 0 0 .4.4.4 0 0 0 .4.4.4 0 .4.4.4.4.4l.4.4c.4.4.7.4.7.7l.4.4s.4 0 .4.4c.4.4.7.7 1.1.7 0 0 .4 0 .4.4.4.4.7.4 1.1.7h.4c.4.4.7.4 1.5.4.4 0 1.1.4 1.5.4h.4c.4 0 .7 0 1.1.4h3.3c1.1 0 1.9-.4 3-.4h.4c.4 0 .7-.4 1.1-.4h.4c.4 0 .7-.4 1.1-.4h.4c.7-.4 1.9-1.1 2.6-1.5l1.1-1.1.4-.4c5.9-6.3 15.6-6.3 21.6 0 6.7 7.1 17.8 6.7 24.2-1.1 4.5-5.6 4.5-13.8 0-19.7-5.9-7.4-16.7-7.8-23-1.9l-.7.7-1.5 1.1c-6.5 4.9-15.5 4.5-21-1.1l-.7-.7-1.1-1.5c-4.8-5.9-4.5-14.9 1.1-20.4 3.3-3 4.8-7.1 4.8-11.1v-1.1c0-3.7-1.5-7.4-4.5-10 0-.4-.4-.4-.4-.7L39.6 61c-4.8-5.9-4.5-14.9 1.1-20.4l.4-.4.4-.4c5.9-6.3 15.6-6.3 21.6 0l.4.4.4.4.7.7c.4 0 .4.4.7.4.4 0 .4.4.7.4.4 0 .4.4.7.4.4 0 .4.4.7.4.4 0 .4.4.7.4s.4.4.7.4c.4 0 .4 0 .7.4.4 0 .4 0 .7.4h6.3c.4 0 .7 0 1.1-.4h.7c.4 0 .7-.4 1.1-.4h.4c.4 0 .7-.4 1.5-.7 1.5-.7 3-1.9 4.1-3l.4-.4c5.9-6.3 15.6-6.3 21.6 0 6.3 7.4 17.8 7.1 23.8-.7 4.7-6 4.7-14.1.2-19.7" />
        <!-- </g> -->
    </symbol>

</svg>